<svg xmlns="http://www.w3.org/2000/svg" xmlns:xlink="http://www.w3.org/1999/xlink" width="29" height="29" viewBox="0 0 29 29">
  <defs>
    <filter id="log-out" x="0" y="0" width="29" height="29" filterUnits="userSpaceOnUse">
      <feOffset input="SourceAlpha"/>
      <feGaussianBlur stdDeviation="1.5" result="blur"/>
      <feFlood flood-color="#e342e6"/>
      <feComposite operator="in" in2="blur"/>
      <feComposite in="SourceGraphic"/>
    </filter>
  </defs>
  <g transform="matrix(1, 0, 0, 1, 0, 0)" filter="url(#log-out)">
    <path id="log-out-2" data-name="log-out" d="M3,20a3,3,0,0,1-3-3V3A3,3,0,0,1,3,0H7A1,1,0,0,1,7,2H3A1,1,0,0,0,2,3V17a1,1,0,0,0,1,1H7a1,1,0,1,1,0,2Zm10.293-4.293a1,1,0,0,1,0-1.414L16.586,11H7A1,1,0,1,1,7,9h9.586L13.293,5.707a1,1,0,1,1,1.414-1.414l5,5a1,1,0,0,1,0,1.415l-5,5a1,1,0,0,1-1.414,0Z" transform="translate(4.5 4.5)" fill="#e342e6"/>
  </g>
</svg>
