<svg xmlns="http://www.w3.org/2000/svg" xmlns:xlink="http://www.w3.org/1999/xlink" width="337.344" height="282.184" viewBox="0 0 337.344 282.184">
  <defs>
    <filter id="store" x="0" y="0" width="337.344" height="282.184" filterUnits="userSpaceOnUse">
      <feOffset input="SourceAlpha"/>
      <feGaussianBlur stdDeviation="7.5" result="blur"/>
      <feFlood flood-color="#e342e6"/>
      <feComposite operator="in" in2="blur"/>
      <feComposite in="SourceGraphic"/>
    </filter>
  </defs>
  <g transform="matrix(1, 0, 0, 1, 0, 0)" filter="url(#store)">
    <path id="store-2" data-name="store" d="M8.111,230.144v-8s0-5,6-4h4v-112s28,3,40-12c0,0,27,27,58,0,0,0,26,27,59,0,0,0,25,27,59,0,0,0,16,16,39,12l1,112s9-2,9,6c0,0,4,13-7,13h-260s-.36.04-.928.04C12.911,237.184,7.311,236.544,8.111,230.144Zm48-91v79h47v-79c-1-6-6-6-6-6h-30c-.668-.067-1.294-.1-1.884-.1C56.984,133.048,56.111,139.145,56.111,139.145Zm84,0,1,51c-3,10,8,9,8,9h77c14,0,9-6,9-6v-53c1-10-10-7-10-7h-79C141.111,133.145,140.111,139.145,140.111,139.145Zm-76,41a10,10,0,1,1,10,10A10,10,0,0,1,64.111,180.145ZM205,94.853a22.194,22.194,0,0,1-5.89-.708c-21-6-24-24-24-24l-4,10c-7,19-35,13-35,13-19-4-19-24-19-24l-4,8c-7,21-36,17-36,17-15-6-19-25-19-25l-3,8c-10,22-30,17-30,17-18-2-22-14-22-14-7-9,0-20,0-20l37-50c3-12,16-10,16-10l178,1c10-5,18,8,18,8l40,58c3,20-24,27-24,27-31,4-34-23-34-23-8.18,20.451-21.473,23.708-29.106,23.708ZM175.111,58.145h55l-18-38h-43Zm-115,0h58l5-38h-45Z" transform="translate(22.5 22.5)" fill="#e342e6"/>
  </g>
</svg>
