<svg xmlns="http://www.w3.org/2000/svg" xmlns:xlink="http://www.w3.org/1999/xlink" width="29" height="31" viewBox="0 0 29 31">
  <defs>
    <filter id="bag" x="0" y="0" width="29" height="31" filterUnits="userSpaceOnUse">
      <feOffset input="SourceAlpha"/>
      <feGaussianBlur stdDeviation="1.5" result="blur"/>
      <feFlood flood-color="#e342e6"/>
      <feComposite operator="in" in2="blur"/>
      <feComposite in="SourceGraphic"/>
    </filter>
  </defs>
  <g transform="matrix(1, 0, 0, 1, 0, 0)" filter="url(#bag)">
    <path id="bag-2" data-name="bag" d="M3,22a3,3,0,0,1-3-3V5c0-.008,0-.015,0-.023V4.933A1,1,0,0,1,.2,4.4l3-4A1,1,0,0,1,4,0H16a1,1,0,0,1,.8.4l3,4a1,1,0,0,1,.2.523h0v.058c0,.008,0,.016,0,.023V19a3,3,0,0,1-3,3ZM2,19a1,1,0,0,0,1,1H17a1,1,0,0,0,1-1V6H2ZM17,4,15.5,2H4.5L3,4ZM5,9A1,1,0,0,1,7,9a3,3,0,1,0,6,0,1,1,0,0,1,2,0A5,5,0,1,1,5,9Z" transform="translate(4.5 4.5)" fill="#e342e6"/>
  </g>
</svg>
