<svg xmlns="http://www.w3.org/2000/svg" xmlns:xlink="http://www.w3.org/1999/xlink" width="29" height="29" viewBox="0 0 29 29">
  <defs>
    <filter id="grid" x="0" y="0" width="29" height="29" filterUnits="userSpaceOnUse">
      <feOffset input="SourceAlpha"/>
      <feGaussianBlur stdDeviation="1.5" result="blur"/>
      <feFlood flood-color="#e342e6"/>
      <feComposite operator="in" in2="blur"/>
      <feComposite in="SourceGraphic"/>
    </filter>
  </defs>
  <g transform="matrix(1, 0, 0, 1, 0, 0)" filter="url(#grid)">
    <path id="grid-2" data-name="grid" d="M12,20a1,1,0,0,1-1-1V12a1,1,0,0,1,1-1h7a1,1,0,0,1,1,1v7a1,1,0,0,1-1,1Zm1-2h5V13H13ZM1,20a1,1,0,0,1-1-1V12a1,1,0,0,1,1-1H8a1,1,0,0,1,1,1v7a1,1,0,0,1-1,1Zm1-2H7V13H2ZM12,9a1,1,0,0,1-1-1V1a1,1,0,0,1,1-1h7a1,1,0,0,1,1,1V8a1,1,0,0,1-1,1Zm1-2h5V2H13ZM1,9A1,1,0,0,1,0,8V1A1,1,0,0,1,1,0H8A1,1,0,0,1,9,1V8A1,1,0,0,1,8,9ZM2,7H7V2H2Z" transform="translate(4.5 4.5)" fill="#e342e6"/>
  </g>
</svg>
