<svg xmlns="http://www.w3.org/2000/svg" xmlns:xlink="http://www.w3.org/1999/xlink" width="23" height="27" viewBox="0 0 23 27">
  <defs>
    <filter id="menu" x="0" y="0" width="23" height="27" filterUnits="userSpaceOnUse">
      <feOffset input="SourceAlpha"/>
      <feGaussianBlur stdDeviation="1.5" result="blur"/>
      <feFlood flood-color="#e342e6"/>
      <feComposite operator="in" in2="blur"/>
      <feComposite in="SourceGraphic"/>
    </filter>
  </defs>
  <g transform="matrix(1, 0, 0, 1, 0, 0)" filter="url(#menu)">
    <path id="menu-2" data-name="menu" d="M12,17V1a1,1,0,0,1,2,0V17a1,1,0,0,1-2,0ZM6,17V7A1,1,0,1,1,8,7V17a1,1,0,0,1-2,0ZM0,17V13a1,1,0,0,1,2,0v4a1,1,0,0,1-2,0Z" transform="translate(4.5 4.5)" fill="#e342e6"/>
  </g>
</svg>
