<svg xmlns="http://www.w3.org/2000/svg" xmlns:xlink="http://www.w3.org/1999/xlink" width="28.988" height="27" viewBox="0 0 28.988 27">
  <defs>
    <filter id="storefront-outline" x="0" y="0" width="28.988" height="27" filterUnits="userSpaceOnUse">
      <feOffset input="SourceAlpha"/>
      <feGaussianBlur stdDeviation="1.5" result="blur"/>
      <feFlood flood-color="#e342e6"/>
      <feComposite operator="in" in2="blur"/>
      <feComposite in="SourceGraphic"/>
    </filter>
  </defs>
  <g transform="matrix(1, 0, 0, 1, 0, 0)" filter="url(#storefront-outline)">
    <path id="storefront-outline-2" data-name="storefront-outline" d="M5.06,3a2.026,2.026,0,0,0-1.22.42,1.775,1.775,0,0,0-.7,1.08L2.11,8.91a3.189,3.189,0,0,0,.61,2.86l.28.28V19a1.907,1.907,0,0,0,.61,1.39A2.024,2.024,0,0,0,5,21H19a1.907,1.907,0,0,0,1.39-.61A2.024,2.024,0,0,0,21,19V12.05l.28-.28a3.189,3.189,0,0,0,.61-2.86L20.86,4.5a2.018,2.018,0,0,0-.73-1.08A1.881,1.881,0,0,0,18.94,3H5.06M18.89,4.97l1.08,4.41a1.346,1.346,0,0,1-.28,1.17,1.141,1.141,0,0,1-.94.45,1.031,1.031,0,0,1-.8-.34,1.323,1.323,0,0,1-.37-.82L16.97,5l1.92-.03M5.06,5H7.03L6.42,9.84C6.3,10.63,5.91,11,5.25,11a1.068,1.068,0,0,1-.94-.45,1.346,1.346,0,0,1-.28-1.17L5.06,5M9.05,5H11V9.7a1.291,1.291,0,0,1-.36.92A1.237,1.237,0,0,1,9.7,11a1.036,1.036,0,0,1-.86-.41,1.445,1.445,0,0,1-.34-.93V9.5L9.05,5M13,5h1.95l.55,4.5a1.127,1.127,0,0,1-.29,1.07A1.262,1.262,0,0,1,14.2,11a1.13,1.13,0,0,1-.84-.38A1.291,1.291,0,0,1,13,9.7V5M7.45,12.05A3.228,3.228,0,0,0,9.8,13a3.039,3.039,0,0,0,2.2-.95,3.372,3.372,0,0,0,2.3.95,3.117,3.117,0,0,0,2.25-.95A2.9,2.9,0,0,0,18.8,13h.23v6H5V13h.25A2.835,2.835,0,0,0,7.45,12.05Z" transform="translate(2.49 1.5)" fill="#e342e6"/>
  </g>
</svg>
