<svg xmlns="http://www.w3.org/2000/svg" xmlns:xlink="http://www.w3.org/1999/xlink" width="28.989" height="27" viewBox="0 0 28.989 27">
  <defs>
    <filter id="storefront" x="0" y="0" width="28.989" height="27" filterUnits="userSpaceOnUse">
      <feOffset input="SourceAlpha"/>
      <feGaussianBlur stdDeviation="1.5" result="blur"/>
      <feFlood flood-color="#e342e6"/>
      <feComposite operator="in" in2="blur"/>
      <feComposite in="SourceGraphic"/>
    </filter>
  </defs>
  <g transform="matrix(1, 0, 0, 1, 0, 0)" filter="url(#storefront)">
    <path id="storefront-2" data-name="storefront" d="M5.06,3a2.026,2.026,0,0,0-1.22.42,1.775,1.775,0,0,0-.7,1.08L2.11,8.91a3.179,3.179,0,0,0,.58,2.82c.12.12.24.24.35.34A2.952,2.952,0,0,0,5.22,13a3.2,3.2,0,0,0,2.25-.95,3.2,3.2,0,0,0,4.53.02,3.287,3.287,0,0,0,2.3.93,3.094,3.094,0,0,0,2.24-.95,3.123,3.123,0,0,0,2.27.95A2.862,2.862,0,0,0,21,12.06c.09-.09.18-.19.28-.29a3.189,3.189,0,0,0,.61-2.86L20.86,4.5a2.018,2.018,0,0,0-.73-1.08A1.881,1.881,0,0,0,18.94,3m-.05,1.97,1.08,4.41a1.346,1.346,0,0,1-.28,1.17,1.141,1.141,0,0,1-.94.45,1.031,1.031,0,0,1-.8-.34,1.323,1.323,0,0,1-.37-.82L16.97,5M5.06,5H7.03L6.42,9.84C6.3,10.63,5.91,11,5.25,11a1.068,1.068,0,0,1-.94-.45,1.346,1.346,0,0,1-.28-1.17M9.05,5H11V9.7a1.291,1.291,0,0,1-.36.92A1.237,1.237,0,0,1,9.7,11a1.036,1.036,0,0,1-.86-.41,1.445,1.445,0,0,1-.34-.93V9.5M13,5h1.95l.55,4.5a1.127,1.127,0,0,1-.29,1.07A1.262,1.262,0,0,1,14.2,11a1.13,1.13,0,0,1-.84-.38A1.291,1.291,0,0,1,13,9.7M3,14.03V19a1.993,1.993,0,0,0,2,2H19a2,2,0,0,0,2-2V14.05A2.956,2.956,0,0,1,19,15a3.132,3.132,0,0,1-2.46-.95A3.175,3.175,0,0,1,14.3,15a3.32,3.32,0,0,1-2.3-.93A3.129,3.129,0,0,1,9.78,15a3.216,3.216,0,0,1-2.31-.95A3.129,3.129,0,0,1,5.23,15,3.092,3.092,0,0,1,3,14.03Z" transform="translate(2.49 1.5)" fill="#e342e6"/>
  </g>
</svg>
