<svg xmlns="http://www.w3.org/2000/svg" xmlns:xlink="http://www.w3.org/1999/xlink" width="27" height="29" viewBox="0 0 27 29">
  <defs>
    <filter id="user" x="0" y="0" width="27" height="29" filterUnits="userSpaceOnUse">
      <feOffset input="SourceAlpha"/>
      <feGaussianBlur stdDeviation="1.5" result="blur"/>
      <feFlood flood-color="#e342e6"/>
      <feComposite operator="in" in2="blur"/>
      <feComposite in="SourceGraphic"/>
    </filter>
  </defs>
  <g transform="matrix(1, 0, 0, 1, 0, 0)" filter="url(#user)">
    <path id="user-2" data-name="user" d="M16,19V17a3,3,0,0,0-3-3H5a3,3,0,0,0-3,3v2a1,1,0,0,1-2,0V17a5.006,5.006,0,0,1,5-5h8a5.006,5.006,0,0,1,5,5v2a1,1,0,0,1-2,0ZM4,5a5,5,0,1,1,5,5A5.006,5.006,0,0,1,4,5ZM6,5A3,3,0,1,0,9,2,3,3,0,0,0,6,5Z" transform="translate(4.5 4.5)" fill="#e342e6"/>
  </g>
</svg>
